G04 --- HEADER BEGIN --- *
%TF.GenerationSoftware,LibrePCB,LibrePCB,0.1.3*%
%TF.CreationDate,2019-12-12T00:16:35*%
%TF.ProjectId,Gfro?rli Hardware - Board,40295ca7-128f-4c1e-90ec-79de77364cdf,v2*%
%TF.Part,Single*%
%FSLAX66Y66*%
%MOMM*%
G01*
G74*
G04 --- HEADER END --- *
G04 --- APERTURE LIST BEGIN --- *
%ADD10C,0.0*%
%ADD11C,0.15*%
%ADD12R,1.3X1.2*%
%ADD13C,2.3*%
%ADD14R,0.65X1.7*%
%ADD15C,1.9*%
%ADD16R,0.75X1.7*%
%ADD17R,1.45X0.95*%
%ADD18R,1.8X0.9*%
%ADD19R,0.55X0.9*%
%ADD20R,5.28X2.486*%
%ADD21R,5.28X2.613*%
%ADD22C,1.1652*%
%ADD23R,1.7X1.5*%
%ADD24O,1.787X2.39*%
%ADD25R,1.787X2.39*%
%ADD26O,2.39X1.787*%
%ADD27R,2.39X1.787*%
%ADD28R,1.4X1.4*%
%ADD29R,0.95X1.45*%
%ADD30R,1.6X1.6*%
%ADD31R,1.2X1.6*%
%ADD32R,1.3X0.8*%
%ADD33R,1.216X1.724*%
%ADD34R,1.724X1.216*%
%ADD35R,1.5X0.67*%
%ADD36R,0.67X1.5*%
%ADD37R,2.6X0.96*%
%ADD38R,2.0X1.2*%
%ADD39R,1.15X1.5*%
%ADD40C,3.2*%
%ADD41C,0.2*%
G04 --- APERTURE LIST END --- *
G04 --- BOARD BEGIN --- *
D10*
X2867000Y57290000D02*
X2857000Y57270000D01*
X2897000Y57170000D01*
X2977000Y57030000D01*
X3087000Y56880000D01*
X3207000Y56760000D01*
X3277000Y56680000D01*
X3277000Y56660000D01*
X3257000Y56660000D01*
X3227000Y56650000D01*
X3227000Y56630000D01*
X3327000Y56570000D01*
X3427000Y56530000D01*
X3467000Y56530000D01*
X3457000Y56570000D01*
X3397000Y56660000D01*
X3337000Y56730000D01*
X3297000Y56750000D01*
X3237000Y56780000D01*
X3147000Y56880000D01*
X2967000Y57140000D01*
X2867000Y57290000D01*
X2867000Y57290000D01*
G36*
X2867000Y57290000D02*
X2857000Y57270000D01*
X2897000Y57170000D01*
X2977000Y57030000D01*
X3087000Y56880000D01*
X3207000Y56760000D01*
X3277000Y56680000D01*
X3277000Y56660000D01*
X3257000Y56660000D01*
X3227000Y56650000D01*
X3227000Y56630000D01*
X3327000Y56570000D01*
X3427000Y56530000D01*
X3467000Y56530000D01*
X3457000Y56570000D01*
X3397000Y56660000D01*
X3337000Y56730000D01*
X3297000Y56750000D01*
X3237000Y56780000D01*
X3147000Y56880000D01*
X2967000Y57140000D01*
X2867000Y57290000D01*
X2867000Y57290000D01*
G37*
X3737000Y56180000D02*
X3627000Y56130000D01*
X3487000Y56110000D01*
X3277000Y56130000D01*
X3147000Y56180000D01*
X3087000Y56210000D01*
X2997000Y56270000D01*
X2917000Y56310000D01*
X2907000Y56330000D01*
X2887000Y56340000D01*
X2817000Y56390000D01*
X2777000Y56460000D01*
X2767000Y56460000D01*
X2707000Y56500000D01*
X2687000Y56520000D01*
X2697000Y56520000D01*
X2697000Y56540000D01*
X2637000Y56610000D01*
X2547000Y56710000D01*
X2537000Y56730000D01*
X2567000Y56720000D01*
X2567000Y56730000D01*
X2527000Y56770000D01*
X2467000Y56870000D01*
X2437000Y56920000D01*
X2417000Y56960000D01*
X2397000Y57010000D01*
X2377000Y57050000D01*
X2377000Y57090000D01*
X2347000Y57140000D01*
X2297000Y57370000D01*
X2287000Y57630000D01*
X2317000Y57850000D01*
X2337000Y57900000D01*
X2367000Y57960000D01*
X2397000Y58020000D01*
X2467000Y58120000D01*
X2517000Y58170000D01*
X2557000Y58180000D01*
X2577000Y58180000D01*
X2617000Y58220000D01*
X2657000Y58240000D01*
X2637000Y58190000D01*
X2567000Y58040000D01*
X2547000Y57800000D01*
X2567000Y57530000D01*
X2577000Y57410000D01*
X2557000Y57360000D01*
X2577000Y57370000D01*
X2597000Y57380000D01*
X2607000Y57370000D01*
X2607000Y57330000D01*
X2627000Y57290000D01*
X2657000Y57230000D01*
X2697000Y57120000D01*
X2727000Y57040000D01*
X2777000Y56980000D01*
X2837000Y56900000D01*
X3047000Y56620000D01*
X3237000Y56470000D01*
X3407000Y56360000D01*
X3507000Y56320000D01*
X3627000Y56270000D01*
X3757000Y56250000D01*
X3847000Y56240000D01*
X3737000Y56180000D01*
X3777000Y56140000D01*
X3927000Y56220000D01*
X4137000Y56370000D01*
X4277000Y56520000D01*
X4357000Y56680000D01*
X4397000Y56880000D01*
X4407000Y56990000D01*
X4637000Y57030000D01*
X4627000Y57050000D01*
X4607000Y57060000D01*
X4557000Y57060000D01*
X4317000Y57040000D01*
X3337000Y57040000D01*
X3287000Y57090000D01*
X3207000Y57210000D01*
X3187000Y57280000D01*
X3197000Y57330000D01*
X3627000Y57370000D01*
X3657000Y57380000D01*
X3657000Y57390000D01*
X3667000Y57400000D01*
X3707000Y57400000D01*
X3767000Y57400000D01*
X3757000Y57430000D01*
X3607000Y57450000D01*
X3587000Y57470000D01*
X3547000Y57530000D01*
X3507000Y57590000D01*
X3507000Y57630000D01*
X3527000Y57720000D01*
X3547000Y57790000D01*
X3547000Y57840000D01*
X3567000Y57870000D01*
X3617000Y57860000D01*
X3717000Y57780000D01*
X3827000Y57640000D01*
X3857000Y57570000D01*
X3907000Y57480000D01*
X3917000Y57450000D01*
X3897000Y57440000D01*
X3757000Y57430000D01*
X3767000Y57400000D01*
X4127000Y57380000D01*
X4127000Y57410000D01*
X3997000Y57440000D01*
X3917000Y57590000D01*
X3847000Y57720000D01*
X3767000Y57810000D01*
X3657000Y57910000D01*
X3547000Y57980000D01*
X3437000Y58030000D01*
X3437000Y58200000D01*
X3437000Y58380000D01*
X3487000Y58360000D01*
X3597000Y58310000D01*
X3727000Y58220000D01*
X3977000Y57960000D01*
X4157000Y57680000D01*
X4257000Y57450000D01*
X4227000Y57420000D01*
X4127000Y57410000D01*
X4127000Y57380000D01*
X4357000Y57370000D01*
X4337000Y57410000D01*
X4247000Y57600000D01*
X4087000Y57890000D01*
X3957000Y58060000D01*
X3797000Y58220000D01*
X3627000Y58350000D01*
X3487000Y58430000D01*
X3437000Y58450000D01*
X3447000Y58600000D01*
X3427000Y58740000D01*
X3387000Y58750000D01*
X3387000Y57460000D01*
X3327000Y57430000D01*
X3227000Y57420000D01*
X3107000Y57450000D01*
X3077000Y57580000D01*
X3077000Y57910000D01*
X3077000Y58140000D01*
X3017000Y58140000D01*
X2987000Y57730000D01*
X2977000Y57620000D01*
X2987000Y57510000D01*
X3067000Y57270000D01*
X3197000Y57040000D01*
X3377000Y56870000D01*
X3537000Y56790000D01*
X3677000Y56760000D01*
X3817000Y56790000D01*
X3917000Y56860000D01*
X4047000Y56990000D01*
X4177000Y57000000D01*
X4277000Y57000000D01*
X4327000Y56980000D01*
X4347000Y56930000D01*
X4337000Y56840000D01*
X4297000Y56660000D01*
X4197000Y56500000D01*
X4057000Y56380000D01*
X3867000Y56320000D01*
X3667000Y56330000D01*
X3457000Y56400000D01*
X3257000Y56530000D01*
X3067000Y56710000D01*
X2897000Y56920000D01*
X2757000Y57170000D01*
X2657000Y57450000D01*
X2627000Y57630000D01*
X2627000Y57830000D01*
X2647000Y58020000D01*
X2697000Y58180000D01*
X2777000Y58300000D01*
X2887000Y58400000D01*
X2967000Y58450000D01*
X3007000Y58450000D01*
X3017000Y58400000D01*
X3017000Y58140000D01*
X3077000Y58140000D01*
X3067000Y58630000D01*
X3067000Y58800000D01*
X3047000Y58850000D01*
X3027000Y58680000D01*
X3017000Y58550000D01*
X2967000Y58510000D01*
X2657000Y58330000D01*
X2397000Y58140000D01*
X2317000Y58020000D01*
X2257000Y57880000D01*
X2227000Y57720000D01*
X2207000Y57540000D01*
X2207000Y57410000D01*
X2027000Y57370000D01*
X2027000Y57340000D01*
X2227000Y57340000D01*
X2287000Y57070000D01*
X2127000Y57030000D01*
X2027000Y56990000D01*
X2057000Y56980000D01*
X2117000Y56980000D01*
X2337000Y56990000D01*
X2367000Y56910000D01*
X2467000Y56730000D01*
X2617000Y56530000D01*
X2787000Y56340000D01*
X2937000Y56220000D01*
X3027000Y56160000D01*
X3017000Y55890000D01*
X3037000Y55660000D01*
X3077000Y55700000D01*
X3087000Y55900000D01*
X3097000Y56010000D01*
X3107000Y56090000D01*
X3127000Y56110000D01*
X3277000Y56070000D01*
X3397000Y56030000D01*
X3397000Y55880000D01*
X3387000Y55740000D01*
X3437000Y55760000D01*
X3437000Y55900000D01*
X3437000Y55920000D01*
X3447000Y55990000D01*
X3447000Y55940000D01*
X3437000Y55900000D01*
X3447000Y55970000D01*
X3467000Y56030000D01*
X3517000Y56040000D01*
X3687000Y56080000D01*
X3777000Y56140000D01*
X3737000Y56180000D01*
G36*
X3737000Y56180000D02*
X3627000Y56130000D01*
X3487000Y56110000D01*
X3277000Y56130000D01*
X3147000Y56180000D01*
X3087000Y56210000D01*
X2997000Y56270000D01*
X2917000Y56310000D01*
X2907000Y56330000D01*
X2887000Y56340000D01*
X2817000Y56390000D01*
X2777000Y56460000D01*
X2767000Y56460000D01*
X2707000Y56500000D01*
X2687000Y56520000D01*
X2697000Y56520000D01*
X2697000Y56540000D01*
X2637000Y56610000D01*
X2547000Y56710000D01*
X2537000Y56730000D01*
X2567000Y56720000D01*
X2567000Y56730000D01*
X2527000Y56770000D01*
X2467000Y56870000D01*
X2437000Y56920000D01*
X2417000Y56960000D01*
X2397000Y57010000D01*
X2377000Y57050000D01*
X2377000Y57090000D01*
X2347000Y57140000D01*
X2297000Y57370000D01*
X2287000Y57630000D01*
X2317000Y57850000D01*
X2337000Y57900000D01*
X2367000Y57960000D01*
X2397000Y58020000D01*
X2467000Y58120000D01*
X2517000Y58170000D01*
X2557000Y58180000D01*
X2577000Y58180000D01*
X2617000Y58220000D01*
X2657000Y58240000D01*
X2637000Y58190000D01*
X2567000Y58040000D01*
X2547000Y57800000D01*
X2567000Y57530000D01*
X2577000Y57410000D01*
X2557000Y57360000D01*
X2577000Y57370000D01*
X2597000Y57380000D01*
X2607000Y57370000D01*
X2607000Y57330000D01*
X2627000Y57290000D01*
X2657000Y57230000D01*
X2697000Y57120000D01*
X2727000Y57040000D01*
X2777000Y56980000D01*
X2837000Y56900000D01*
X3047000Y56620000D01*
X3237000Y56470000D01*
X3407000Y56360000D01*
X3507000Y56320000D01*
X3627000Y56270000D01*
X3757000Y56250000D01*
X3847000Y56240000D01*
X3737000Y56180000D01*
X3777000Y56140000D01*
X3927000Y56220000D01*
X4137000Y56370000D01*
X4277000Y56520000D01*
X4357000Y56680000D01*
X4397000Y56880000D01*
X4407000Y56990000D01*
X4637000Y57030000D01*
X4627000Y57050000D01*
X4607000Y57060000D01*
X4557000Y57060000D01*
X4317000Y57040000D01*
X3337000Y57040000D01*
X3287000Y57090000D01*
X3207000Y57210000D01*
X3187000Y57280000D01*
X3197000Y57330000D01*
X3627000Y57370000D01*
X3657000Y57380000D01*
X3657000Y57390000D01*
X3667000Y57400000D01*
X3707000Y57400000D01*
X3767000Y57400000D01*
X3757000Y57430000D01*
X3607000Y57450000D01*
X3587000Y57470000D01*
X3547000Y57530000D01*
X3507000Y57590000D01*
X3507000Y57630000D01*
X3527000Y57720000D01*
X3547000Y57790000D01*
X3547000Y57840000D01*
X3567000Y57870000D01*
X3617000Y57860000D01*
X3717000Y57780000D01*
X3827000Y57640000D01*
X3857000Y57570000D01*
X3907000Y57480000D01*
X3917000Y57450000D01*
X3897000Y57440000D01*
X3757000Y57430000D01*
X3767000Y57400000D01*
X4127000Y57380000D01*
X4127000Y57410000D01*
X3997000Y57440000D01*
X3917000Y57590000D01*
X3847000Y57720000D01*
X3767000Y57810000D01*
X3657000Y57910000D01*
X3547000Y57980000D01*
X3437000Y58030000D01*
X3437000Y58200000D01*
X3437000Y58380000D01*
X3487000Y58360000D01*
X3597000Y58310000D01*
X3727000Y58220000D01*
X3977000Y57960000D01*
X4157000Y57680000D01*
X4257000Y57450000D01*
X4227000Y57420000D01*
X4127000Y57410000D01*
X4127000Y57380000D01*
X4357000Y57370000D01*
X4337000Y57410000D01*
X4247000Y57600000D01*
X4087000Y57890000D01*
X3957000Y58060000D01*
X3797000Y58220000D01*
X3627000Y58350000D01*
X3487000Y58430000D01*
X3437000Y58450000D01*
X3447000Y58600000D01*
X3427000Y58740000D01*
X3387000Y58750000D01*
X3387000Y57460000D01*
X3327000Y57430000D01*
X3227000Y57420000D01*
X3107000Y57450000D01*
X3077000Y57580000D01*
X3077000Y57910000D01*
X3077000Y58140000D01*
X3017000Y58140000D01*
X2987000Y57730000D01*
X2977000Y57620000D01*
X2987000Y57510000D01*
X3067000Y57270000D01*
X3197000Y57040000D01*
X3377000Y56870000D01*
X3537000Y56790000D01*
X3677000Y56760000D01*
X3817000Y56790000D01*
X3917000Y56860000D01*
X4047000Y56990000D01*
X4177000Y57000000D01*
X4277000Y57000000D01*
X4327000Y56980000D01*
X4347000Y56930000D01*
X4337000Y56840000D01*
X4297000Y56660000D01*
X4197000Y56500000D01*
X4057000Y56380000D01*
X3867000Y56320000D01*
X3667000Y56330000D01*
X3457000Y56400000D01*
X3257000Y56530000D01*
X3067000Y56710000D01*
X2897000Y56920000D01*
X2757000Y57170000D01*
X2657000Y57450000D01*
X2627000Y57630000D01*
X2627000Y57830000D01*
X2647000Y58020000D01*
X2697000Y58180000D01*
X2777000Y58300000D01*
X2887000Y58400000D01*
X2967000Y58450000D01*
X3007000Y58450000D01*
X3017000Y58400000D01*
X3017000Y58140000D01*
X3077000Y58140000D01*
X3067000Y58630000D01*
X3067000Y58800000D01*
X3047000Y58850000D01*
X3027000Y58680000D01*
X3017000Y58550000D01*
X2967000Y58510000D01*
X2657000Y58330000D01*
X2397000Y58140000D01*
X2317000Y58020000D01*
X2257000Y57880000D01*
X2227000Y57720000D01*
X2207000Y57540000D01*
X2207000Y57410000D01*
X2027000Y57370000D01*
X2027000Y57340000D01*
X2227000Y57340000D01*
X2287000Y57070000D01*
X2127000Y57030000D01*
X2027000Y56990000D01*
X2057000Y56980000D01*
X2117000Y56980000D01*
X2337000Y56990000D01*
X2367000Y56910000D01*
X2467000Y56730000D01*
X2617000Y56530000D01*
X2787000Y56340000D01*
X2937000Y56220000D01*
X3027000Y56160000D01*
X3017000Y55890000D01*
X3037000Y55660000D01*
X3077000Y55700000D01*
X3087000Y55900000D01*
X3097000Y56010000D01*
X3107000Y56090000D01*
X3127000Y56110000D01*
X3277000Y56070000D01*
X3397000Y56030000D01*
X3397000Y55880000D01*
X3387000Y55740000D01*
X3437000Y55760000D01*
X3437000Y55900000D01*
X3437000Y55920000D01*
X3447000Y55990000D01*
X3447000Y55940000D01*
X3437000Y55900000D01*
X3447000Y55970000D01*
X3467000Y56030000D01*
X3517000Y56040000D01*
X3687000Y56080000D01*
X3777000Y56140000D01*
X3737000Y56180000D01*
G37*
X4237000Y56940000D02*
X4047000Y56750000D01*
X4077000Y56750000D01*
X4097000Y56750000D01*
X4107000Y56740000D01*
X4057000Y56680000D01*
X3927000Y56610000D01*
X3767000Y56580000D01*
X3677000Y56560000D01*
X3707000Y56540000D01*
X3797000Y56540000D01*
X3967000Y56570000D01*
X4097000Y56660000D01*
X4177000Y56710000D01*
X4197000Y56730000D01*
X4217000Y56820000D01*
X4237000Y56940000D01*
X4237000Y56940000D01*
G36*
X4237000Y56940000D02*
X4047000Y56750000D01*
X4077000Y56750000D01*
X4097000Y56750000D01*
X4107000Y56740000D01*
X4057000Y56680000D01*
X3927000Y56610000D01*
X3767000Y56580000D01*
X3677000Y56560000D01*
X3707000Y56540000D01*
X3797000Y56540000D01*
X3967000Y56570000D01*
X4097000Y56660000D01*
X4177000Y56710000D01*
X4197000Y56730000D01*
X4217000Y56820000D01*
X4237000Y56940000D01*
X4237000Y56940000D01*
G37*
X2907000Y58150000D02*
X2877000Y58140000D01*
X2827000Y58040000D01*
X2797000Y57900000D01*
X2787000Y57870000D01*
X2757000Y57850000D01*
X2727000Y57830000D01*
X2727000Y57810000D01*
X2747000Y57700000D01*
X2767000Y57610000D01*
X2807000Y57600000D01*
X2837000Y57660000D01*
X2877000Y57820000D01*
X2867000Y57850000D01*
X2847000Y57860000D01*
X2837000Y57910000D01*
X2877000Y58050000D01*
X2907000Y58120000D01*
X2907000Y58150000D01*
X2907000Y58150000D01*
G36*
X2907000Y58150000D02*
X2877000Y58140000D01*
X2827000Y58040000D01*
X2797000Y57900000D01*
X2787000Y57870000D01*
X2757000Y57850000D01*
X2727000Y57830000D01*
X2727000Y57810000D01*
X2747000Y57700000D01*
X2767000Y57610000D01*
X2807000Y57600000D01*
X2837000Y57660000D01*
X2877000Y57820000D01*
X2867000Y57850000D01*
X2847000Y57860000D01*
X2837000Y57910000D01*
X2877000Y58050000D01*
X2907000Y58120000D01*
X2907000Y58150000D01*
X2907000Y58150000D01*
G37*
X3507000Y58200000D02*
X3577000Y58090000D01*
X3677000Y57990000D01*
X3687000Y58010000D01*
X3697000Y58030000D01*
X3757000Y57990000D01*
X3847000Y57900000D01*
X3997000Y57700000D01*
X4057000Y57610000D01*
X4077000Y57600000D01*
X4087000Y57620000D01*
X3987000Y57780000D01*
X3817000Y57990000D01*
X3737000Y58090000D01*
X3757000Y58110000D01*
X3637000Y58170000D01*
X3507000Y58200000D01*
X3507000Y58200000D01*
G36*
X3507000Y58200000D02*
X3577000Y58090000D01*
X3677000Y57990000D01*
X3687000Y58010000D01*
X3697000Y58030000D01*
X3757000Y57990000D01*
X3847000Y57900000D01*
X3997000Y57700000D01*
X4057000Y57610000D01*
X4077000Y57600000D01*
X4087000Y57620000D01*
X3987000Y57780000D01*
X3817000Y57990000D01*
X3737000Y58090000D01*
X3757000Y58110000D01*
X3637000Y58170000D01*
X3507000Y58200000D01*
X3507000Y58200000D01*
G37*
D11*
X5402000Y57342000D02*
X5402000Y58142000D01*
X5668667Y57570444D01*
X5935333Y58142000D01*
X5935333Y57342000D01*
X6626666Y57342000D02*
X6626666Y57760667D01*
X6588444Y57837111D01*
X6512000Y57875333D01*
X6360000Y57875333D01*
X6283555Y57837111D01*
X6626666Y57380222D02*
X6550222Y57342000D01*
X6360000Y57342000D01*
X6283555Y57380222D01*
X6245333Y57456667D01*
X6245333Y57532222D01*
X6283555Y57608667D01*
X6360000Y57646889D01*
X6550222Y57646889D01*
X6626666Y57685111D01*
X7317999Y57342000D02*
X7317999Y58142000D01*
X7317999Y57380222D02*
X7241555Y57342000D01*
X7088666Y57342000D01*
X7013110Y57380222D01*
X6974888Y57418444D01*
X6936666Y57494000D01*
X6936666Y57723333D01*
X6974888Y57798889D01*
X7013110Y57837111D01*
X7088666Y57875333D01*
X7241555Y57875333D01*
X7317999Y57837111D01*
X7971110Y57380222D02*
X7894666Y57342000D01*
X7742666Y57342000D01*
X7666221Y57380222D01*
X7627999Y57456667D01*
X7627999Y57760667D01*
X7666221Y57837111D01*
X7742666Y57875333D01*
X7894666Y57875333D01*
X7971110Y57837111D01*
X8009332Y57760667D01*
X8009332Y57685111D01*
X7627999Y57608667D01*
X9025775Y57570444D02*
X9406220Y57570444D01*
X8949331Y57342000D02*
X9215998Y58142000D01*
X9482664Y57342000D01*
X9792664Y57875333D02*
X10097553Y57875333D01*
X9907331Y58142000D02*
X9907331Y57456667D01*
X9944664Y57380222D01*
X10021108Y57342000D01*
X10097553Y57342000D01*
X5897111Y56234444D02*
X5858889Y56196222D01*
X5745111Y56158000D01*
X5668667Y56158000D01*
X5554000Y56196222D01*
X5478444Y56272667D01*
X5440222Y56348222D01*
X5402000Y56501111D01*
X5402000Y56614889D01*
X5440222Y56767778D01*
X5478444Y56843333D01*
X5554000Y56919778D01*
X5668667Y56958000D01*
X5745111Y56958000D01*
X5858889Y56919778D01*
X5897111Y56881556D01*
X6359111Y56158000D02*
X6283555Y56196222D01*
X6245333Y56234444D01*
X6207111Y56310000D01*
X6207111Y56539333D01*
X6245333Y56614889D01*
X6283555Y56653111D01*
X6359111Y56691333D01*
X6473778Y56691333D01*
X6550222Y56653111D01*
X6588444Y56614889D01*
X6625778Y56539333D01*
X6625778Y56310000D01*
X6588444Y56234444D01*
X6550222Y56196222D01*
X6473778Y56158000D01*
X6359111Y56158000D01*
X6935778Y56158000D02*
X6935778Y56691333D01*
X6935778Y56539333D02*
X6974000Y56614889D01*
X7012222Y56653111D01*
X7087778Y56691333D01*
X7164222Y56691333D01*
X7817333Y56196222D02*
X7740889Y56158000D01*
X7588889Y56158000D01*
X7512444Y56196222D01*
X7474222Y56272667D01*
X7474222Y56576667D01*
X7512444Y56653111D01*
X7588889Y56691333D01*
X7740889Y56691333D01*
X7817333Y56653111D01*
X7855555Y56576667D01*
X7855555Y56501111D01*
X7474222Y56424667D01*
X8546888Y56158000D02*
X8546888Y56958000D01*
X8546888Y56196222D02*
X8470444Y56158000D01*
X8317555Y56158000D01*
X8241999Y56196222D01*
X8203777Y56234444D01*
X8165555Y56310000D01*
X8165555Y56539333D01*
X8203777Y56614889D01*
X8241999Y56653111D01*
X8317555Y56691333D01*
X8470444Y56691333D01*
X8546888Y56653111D01*
X9199999Y56691333D02*
X9199999Y56158000D01*
X8856888Y56691333D02*
X8856888Y56272667D01*
X8895110Y56196222D01*
X8971555Y56158000D01*
X9085332Y56158000D01*
X9161777Y56196222D01*
X9199999Y56234444D01*
X9509999Y56158000D02*
X9509999Y56691333D01*
X9509999Y56614889D02*
X9548221Y56653111D01*
X9624666Y56691333D01*
X9738443Y56691333D01*
X9814888Y56653111D01*
X9853110Y56576667D01*
X9853110Y56158000D01*
X9853110Y56576667D02*
X9891332Y56653111D01*
X9966888Y56691333D01*
X10081555Y56691333D01*
X10157999Y56653111D01*
X10195332Y56576667D01*
X10195332Y56158000D01*
X10505332Y56691333D02*
X10505332Y55891333D01*
X10505332Y56653111D02*
X10581776Y56691333D01*
X10733776Y56691333D01*
X10810221Y56653111D01*
X10848443Y56614889D01*
X10886665Y56539333D01*
X10886665Y56310000D01*
X10848443Y56234444D01*
X10810221Y56196222D01*
X10733776Y56158000D01*
X10581776Y56158000D01*
X10505332Y56196222D01*
D12*
X33598750Y70326254D03*
X35298750Y70326254D03*
D13*
X6985000Y33088500D03*
D14*
X7635000Y34988500D03*
D15*
X4185000Y35238500D03*
D14*
X5685000Y34988500D03*
D15*
X9785000Y35238500D03*
D14*
X8285000Y34988500D03*
X6335000Y34988500D03*
X6985000Y34988500D03*
D16*
X44095000Y73977500D03*
X47345000Y73977500D03*
D17*
X37465000Y74635000D03*
X37465000Y72685000D03*
D18*
X49530000Y2846250D03*
D19*
X49030000Y3846250D03*
X49030000Y1846250D03*
X50030000Y3846250D03*
X50030000Y1846250D03*
D20*
X36512500Y17292500D03*
D21*
X36512500Y12911000D03*
D22*
X33083500Y12974500D03*
X33083500Y21610500D03*
D21*
X36512500Y21674000D03*
D23*
X35242500Y61359375D03*
X35242500Y63259375D03*
D24*
X40957500Y56980000D03*
X35877500Y56980000D03*
X33337500Y56980000D03*
X46037500Y56980000D03*
D25*
X48577500Y56980000D03*
D24*
X43497500Y56980000D03*
X38417500Y56980000D03*
D23*
X52705000Y3796250D03*
X52705000Y1896250D03*
D26*
X6985000Y43180000D03*
X6985000Y45720000D03*
X6985000Y40640000D03*
D27*
X6985000Y48260000D03*
D28*
X6130000Y71120000D03*
X4030000Y71120000D03*
D29*
X2200000Y43180000D03*
X4150000Y43180000D03*
D27*
X6985000Y22860000D03*
D26*
X6985000Y27940000D03*
X6985000Y25400000D03*
D17*
X35084670Y74274324D03*
X35084670Y76224324D03*
D30*
X44059375Y60007500D03*
X42459375Y60007500D03*
D10*
X41659375Y60807500D02*
X44859375Y60807500D01*
X44859375Y59207500D01*
X41659375Y59207500D01*
X41659375Y60807500D01*
G36*
X41659375Y60807500D02*
X44859375Y60807500D01*
X44859375Y59207500D01*
X41659375Y59207500D01*
X41659375Y60807500D01*
G37*
D29*
X2200000Y45720000D03*
X4150000Y45720000D03*
D10*
X4362000Y52786000D02*
X4782000Y52786000D01*
X4782000Y52586000D01*
X4362000Y52586000D01*
X4362000Y52786000D01*
G36*
X4362000Y52786000D02*
X4782000Y52786000D01*
X4782000Y52586000D01*
X4362000Y52586000D01*
X4362000Y52786000D01*
G37*
X3202000Y54146000D02*
X3402000Y54146000D01*
X3402000Y54566000D01*
X3202000Y54566000D01*
X3202000Y54146000D01*
G36*
X3202000Y54146000D02*
X3402000Y54146000D01*
X3402000Y54566000D01*
X3202000Y54566000D01*
X3202000Y54146000D01*
G37*
X2802000Y54146000D02*
X3002000Y54146000D01*
X3002000Y54566000D01*
X2802000Y54566000D01*
X2802000Y54146000D01*
G36*
X2802000Y54146000D02*
X3002000Y54146000D01*
X3002000Y54566000D01*
X2802000Y54566000D01*
X2802000Y54146000D01*
G37*
X2242000Y53586000D02*
X1822000Y53586000D01*
X1822000Y53386000D01*
X2242000Y53386000D01*
X2242000Y53586000D01*
G36*
X2242000Y53586000D02*
X1822000Y53586000D01*
X1822000Y53386000D01*
X2242000Y53386000D01*
X2242000Y53586000D01*
G37*
X3202000Y52026000D02*
X3402000Y52026000D01*
X3402000Y51606000D01*
X3202000Y51606000D01*
X3202000Y52026000D01*
G36*
X3202000Y52026000D02*
X3402000Y52026000D01*
X3402000Y51606000D01*
X3202000Y51606000D01*
X3202000Y52026000D01*
G37*
X2667000Y53933000D02*
X3937000Y53933000D01*
G75*
G02*
X4149000Y53721000I0J-212000D01*
G01*
X4149000Y52451000D01*
G02*
X3937000Y52239000I-212000J0D01*
G01*
X2667000Y52239000D01*
G02*
X2455000Y52451000I0J212000D01*
G01*
X2455000Y53551000D01*
X2670000Y53551000D01*
G03*
X2837000Y53384000I167000J0D01*
G01*
G03*
X3004000Y53551000I0J167000D01*
G01*
G03*
X2837000Y53718000I-167000J0D01*
G01*
G03*
X2670000Y53551000I0J-167000D01*
G01*
X2455000Y53551000D01*
X2455000Y53721000D01*
G02*
X2667000Y53933000I212000J0D01*
G01*
G36*
X2667000Y53933000D02*
X3937000Y53933000D01*
G02*
X4149000Y53721000I0J-212000D01*
G01*
X4149000Y52451000D01*
G02*
X3937000Y52239000I-212000J0D01*
G01*
X2667000Y52239000D01*
G02*
X2455000Y52451000I0J212000D01*
G01*
X2455000Y53551000D01*
X2670000Y53551000D01*
G03*
X2837000Y53384000I167000J0D01*
G01*
G03*
X3004000Y53551000I0J167000D01*
G01*
G03*
X2837000Y53718000I-167000J0D01*
G01*
G03*
X2670000Y53551000I0J-167000D01*
G01*
X2455000Y53551000D01*
X2455000Y53721000D01*
G02*
X2667000Y53933000I212000J0D01*
G01*
G37*
X4362000Y53586000D02*
X4782000Y53586000D01*
X4782000Y53386000D01*
X4362000Y53386000D01*
X4362000Y53586000D01*
G36*
X4362000Y53586000D02*
X4782000Y53586000D01*
X4782000Y53386000D01*
X4362000Y53386000D01*
X4362000Y53586000D01*
G37*
X3602000Y54146000D02*
X3802000Y54146000D01*
X3802000Y54566000D01*
X3602000Y54566000D01*
X3602000Y54146000D01*
G36*
X3602000Y54146000D02*
X3802000Y54146000D01*
X3802000Y54566000D01*
X3602000Y54566000D01*
X3602000Y54146000D01*
G37*
X2242000Y53186000D02*
X1822000Y53186000D01*
X1822000Y52986000D01*
X2242000Y52986000D01*
X2242000Y53186000D01*
G36*
X2242000Y53186000D02*
X1822000Y53186000D01*
X1822000Y52986000D01*
X2242000Y52986000D01*
X2242000Y53186000D01*
G37*
X2802000Y52026000D02*
X3002000Y52026000D01*
X3002000Y51606000D01*
X2802000Y51606000D01*
X2802000Y52026000D01*
G36*
X2802000Y52026000D02*
X3002000Y52026000D01*
X3002000Y51606000D01*
X2802000Y51606000D01*
X2802000Y52026000D01*
G37*
X2242000Y52786000D02*
X1822000Y52786000D01*
X1822000Y52586000D01*
X2242000Y52586000D01*
X2242000Y52786000D01*
G36*
X2242000Y52786000D02*
X1822000Y52786000D01*
X1822000Y52586000D01*
X2242000Y52586000D01*
X2242000Y52786000D01*
G37*
X3602000Y52026000D02*
X3802000Y52026000D01*
X3802000Y51606000D01*
X3602000Y51606000D01*
X3602000Y52026000D01*
G36*
X3602000Y52026000D02*
X3802000Y52026000D01*
X3802000Y51606000D01*
X3602000Y51606000D01*
X3602000Y52026000D01*
G37*
X4362000Y53186000D02*
X4782000Y53186000D01*
X4782000Y52986000D01*
X4362000Y52986000D01*
X4362000Y53186000D01*
G36*
X4362000Y53186000D02*
X4782000Y53186000D01*
X4782000Y52986000D01*
X4362000Y52986000D01*
X4362000Y53186000D01*
G37*
D11*
X5402000Y53278000D02*
X5402000Y54078000D01*
X5668667Y53506444D01*
X5935333Y54078000D01*
X5935333Y53278000D01*
X6626666Y53278000D02*
X6626666Y53696667D01*
X6588444Y53773111D01*
X6512000Y53811333D01*
X6360000Y53811333D01*
X6283555Y53773111D01*
X6626666Y53316222D02*
X6550222Y53278000D01*
X6360000Y53278000D01*
X6283555Y53316222D01*
X6245333Y53392667D01*
X6245333Y53468222D01*
X6283555Y53544667D01*
X6360000Y53582889D01*
X6550222Y53582889D01*
X6626666Y53621111D01*
X7317999Y53278000D02*
X7317999Y54078000D01*
X7317999Y53316222D02*
X7241555Y53278000D01*
X7088666Y53278000D01*
X7013110Y53316222D01*
X6974888Y53354444D01*
X6936666Y53430000D01*
X6936666Y53659333D01*
X6974888Y53734889D01*
X7013110Y53773111D01*
X7088666Y53811333D01*
X7241555Y53811333D01*
X7317999Y53773111D01*
X7971110Y53316222D02*
X7894666Y53278000D01*
X7742666Y53278000D01*
X7666221Y53316222D01*
X7627999Y53392667D01*
X7627999Y53696667D01*
X7666221Y53773111D01*
X7742666Y53811333D01*
X7894666Y53811333D01*
X7971110Y53773111D01*
X8009332Y53696667D01*
X8009332Y53621111D01*
X7627999Y53544667D01*
X8949331Y54078000D02*
X9139553Y53278000D01*
X9292442Y53849556D01*
X9444442Y53278000D01*
X9634664Y54078000D01*
X9982886Y53278000D02*
X9982886Y53811333D01*
X9982886Y54078000D02*
X9944664Y54039778D01*
X9982886Y54001556D01*
X10021108Y54039778D01*
X9982886Y54078000D01*
X9982886Y54001556D01*
X10331108Y53811333D02*
X10635997Y53811333D01*
X10445775Y54078000D02*
X10445775Y53392667D01*
X10483108Y53316222D01*
X10559552Y53278000D01*
X10635997Y53278000D01*
X10945997Y53278000D02*
X10945997Y54078000D01*
X11289108Y53278000D02*
X11289108Y53696667D01*
X11250886Y53773111D01*
X11174441Y53811333D01*
X11060664Y53811333D01*
X10984219Y53773111D01*
X10945997Y53734889D01*
X5783333Y52094000D02*
X5402000Y52094000D01*
X5402000Y52894000D01*
X6131555Y52094000D02*
X6131555Y52627333D01*
X6131555Y52894000D02*
X6093333Y52855778D01*
X6131555Y52817556D01*
X6169777Y52855778D01*
X6131555Y52894000D01*
X6131555Y52817556D01*
X6479777Y52094000D02*
X6479777Y52894000D01*
X6479777Y52589111D02*
X6556221Y52627333D01*
X6708221Y52627333D01*
X6784666Y52589111D01*
X6822888Y52550889D01*
X6861110Y52475333D01*
X6861110Y52246000D01*
X6822888Y52170444D01*
X6784666Y52132222D01*
X6708221Y52094000D01*
X6556221Y52094000D01*
X6479777Y52132222D01*
X7171110Y52094000D02*
X7171110Y52627333D01*
X7171110Y52475333D02*
X7209332Y52550889D01*
X7247554Y52589111D01*
X7323110Y52627333D01*
X7399554Y52627333D01*
X8052665Y52132222D02*
X7976221Y52094000D01*
X7824221Y52094000D01*
X7747776Y52132222D01*
X7709554Y52208667D01*
X7709554Y52512667D01*
X7747776Y52589111D01*
X7824221Y52627333D01*
X7976221Y52627333D01*
X8052665Y52589111D01*
X8090887Y52512667D01*
X8090887Y52437111D01*
X7709554Y52360667D01*
X8400887Y52094000D02*
X8400887Y52894000D01*
X8705776Y52894000D01*
X8782220Y52855778D01*
X8819554Y52817556D01*
X8857776Y52742000D01*
X8857776Y52627333D01*
X8819554Y52550889D01*
X8782220Y52512667D01*
X8705776Y52475333D01*
X8400887Y52475333D01*
X9662887Y52170444D02*
X9624665Y52132222D01*
X9510887Y52094000D01*
X9434443Y52094000D01*
X9319776Y52132222D01*
X9244220Y52208667D01*
X9205998Y52284222D01*
X9167776Y52437111D01*
X9167776Y52550889D01*
X9205998Y52703778D01*
X9244220Y52779333D01*
X9319776Y52855778D01*
X9434443Y52894000D01*
X9510887Y52894000D01*
X9624665Y52855778D01*
X9662887Y52817556D01*
X10239554Y52512667D02*
X10354220Y52475333D01*
X10391554Y52437111D01*
X10429776Y52360667D01*
X10429776Y52246000D01*
X10391554Y52170444D01*
X10354220Y52132222D01*
X10277776Y52094000D01*
X9972887Y52094000D01*
X9972887Y52894000D01*
X10239554Y52894000D01*
X10315998Y52855778D01*
X10354220Y52817556D01*
X10391554Y52742000D01*
X10391554Y52665556D01*
X10354220Y52589111D01*
X10315998Y52550889D01*
X10239554Y52512667D01*
X9972887Y52512667D01*
D29*
X9865000Y71120000D03*
X7915000Y71120000D03*
D31*
X27942448Y76982572D03*
X28892448Y74782572D03*
X29842448Y76982572D03*
D29*
X42091250Y73818750D03*
X40141250Y73818750D03*
D23*
X38258750Y62708750D03*
X38258750Y64608750D03*
D32*
X42040000Y76517500D03*
X39240000Y76517500D03*
X42040000Y77467500D03*
X39240000Y77467500D03*
X39240000Y75567500D03*
X42040000Y75567500D03*
D30*
X52870000Y6508750D03*
X51270000Y6508750D03*
D10*
X50470000Y7308750D02*
X53670000Y7308750D01*
X53670000Y5708750D01*
X50470000Y5708750D01*
X50470000Y7308750D01*
G36*
X50470000Y7308750D02*
X53670000Y7308750D01*
X53670000Y5708750D01*
X50470000Y5708750D01*
X50470000Y7308750D01*
G37*
D33*
X37147500Y28575000D03*
D34*
X49847500Y33655000D03*
X32067500Y53975000D03*
X32067500Y38735000D03*
X49847500Y31115000D03*
X32067500Y46355000D03*
X49847500Y38735000D03*
D33*
X43497500Y28575000D03*
D34*
X32067500Y45085000D03*
X49847500Y45085000D03*
X32067500Y34925000D03*
D33*
X44767500Y28575000D03*
D34*
X49847500Y50165000D03*
X49847500Y40005000D03*
X32067500Y29845000D03*
X49847500Y47625000D03*
X32067500Y50165000D03*
X49847500Y42545000D03*
X32067500Y40005000D03*
X49847500Y53975000D03*
X49847500Y48895000D03*
X32067500Y47625000D03*
X49847500Y46355000D03*
X32067500Y48895000D03*
X49847500Y37465000D03*
D33*
X39687500Y28575000D03*
D34*
X32067500Y43815000D03*
X32067500Y41275000D03*
X32067500Y52705000D03*
D33*
X40957500Y28575000D03*
D34*
X49847500Y34925000D03*
X32067500Y33655000D03*
X49847500Y52705000D03*
X49847500Y51435000D03*
X32067500Y36195000D03*
X32067500Y31115000D03*
X32067500Y51435000D03*
X49847500Y43815000D03*
X32067500Y42545000D03*
X32067500Y37465000D03*
X49847500Y29845000D03*
D33*
X38417500Y28575000D03*
X42227500Y28575000D03*
D34*
X49847500Y36195000D03*
X49847500Y41275000D03*
X32067500Y32385000D03*
X49847500Y32385000D03*
D35*
X48600000Y66105000D03*
X48600000Y69305000D03*
X48600000Y65305000D03*
D36*
X45650000Y70655000D03*
X47250000Y70655000D03*
D35*
X40300000Y64505000D03*
D36*
X41650000Y70655000D03*
X43250000Y70655000D03*
D35*
X48600000Y63705000D03*
X40300000Y67705000D03*
D36*
X44050000Y62355000D03*
D35*
X48600000Y64505000D03*
D36*
X43250000Y62355000D03*
D35*
X40300000Y63705000D03*
X40300000Y69305000D03*
D36*
X45650000Y62355000D03*
X42450000Y62355000D03*
X44850000Y62355000D03*
X46450000Y70655000D03*
D35*
X40300000Y66905000D03*
D36*
X44850000Y70655000D03*
D35*
X48600000Y68505000D03*
X40300000Y65305000D03*
D36*
X42450000Y70655000D03*
D35*
X40300000Y68505000D03*
D36*
X47250000Y62355000D03*
D35*
X48600000Y67705000D03*
D36*
X41650000Y62355000D03*
X44050000Y70655000D03*
D35*
X48600000Y66905000D03*
D36*
X46450000Y62355000D03*
D35*
X40300000Y66105000D03*
D29*
X39823750Y79533750D03*
X41773750Y79533750D03*
D23*
X49053750Y61513125D03*
X49053750Y59613125D03*
D17*
X49212500Y73682500D03*
X49212500Y71732500D03*
D37*
X44558750Y84920000D03*
X44558750Y82380000D03*
X48468750Y79840000D03*
X48468750Y81110000D03*
X44558750Y81110000D03*
X48468750Y82380000D03*
X44558750Y79840000D03*
X48468750Y84920000D03*
X44558750Y83650000D03*
X48468750Y83650000D03*
D28*
X6130000Y61468000D03*
X4030000Y61468000D03*
D38*
X37464148Y70306716D03*
X37464148Y67806716D03*
D39*
X30913125Y27019250D03*
X33063125Y27019250D03*
D40*
X24765000Y12430000D03*
X22225000Y4810000D03*
X19685000Y12430000D03*
X22225000Y71050000D03*
X24765000Y63430000D03*
X19685000Y63430000D03*
D29*
X9865000Y66294000D03*
X7915000Y66294000D03*
D12*
X33598750Y67786246D03*
X35298750Y67786246D03*
D23*
X29845000Y86675000D03*
X29845000Y84775000D03*
D24*
X20320000Y79375000D03*
X22860000Y76835000D03*
X22860000Y79375000D03*
D25*
X25400000Y79375000D03*
D24*
X20320000Y76835000D03*
X25400000Y76835000D03*
D17*
X3492500Y23155000D03*
X3492500Y25105000D03*
D32*
X27435000Y86675000D03*
X24635000Y84775000D03*
X24635000Y85725000D03*
X24635000Y86675000D03*
X27435000Y84775000D03*
D23*
X21590000Y86675000D03*
X21590000Y84775000D03*
D28*
X6130000Y66294000D03*
X4030000Y66294000D03*
D26*
X15240000Y82550000D03*
D27*
X15240000Y87630000D03*
D26*
X15240000Y85090000D03*
D29*
X9865000Y61468000D03*
X7915000Y61468000D03*
D41*
X2456251Y18695787D02*
X2342918Y18753120D01*
X2170918Y18753120D01*
X1998918Y18695787D01*
X1885585Y18581120D01*
X1828251Y18467787D01*
X1770918Y18238453D01*
X1770918Y18067787D01*
X1828251Y17838453D01*
X1885585Y17725120D01*
X1998918Y17610453D01*
X2170918Y17553120D01*
X2285585Y17553120D01*
X2456251Y17610453D01*
X2513585Y17667787D01*
X2513585Y18067787D01*
X2285585Y18067787D01*
X2953585Y18353120D02*
X3410918Y18353120D01*
X3125585Y17553120D02*
X3125585Y18581120D01*
X3181585Y18695787D01*
X3296252Y18753120D01*
X3410918Y18753120D01*
X3850918Y17553120D02*
X3850918Y18353120D01*
X3850918Y18125120D02*
X3908251Y18238453D01*
X3965585Y18295787D01*
X4078918Y18353120D01*
X4193585Y18353120D01*
X4861585Y17553120D02*
X4748252Y17610453D01*
X4690918Y17667787D01*
X4633585Y17781120D01*
X4633585Y18125120D01*
X4690918Y18238453D01*
X4748252Y18295787D01*
X4861585Y18353120D01*
X5033585Y18353120D01*
X5148252Y18295787D01*
X5205585Y18238453D01*
X5261585Y18125120D01*
X5261585Y17781120D01*
X5205585Y17667787D01*
X5148252Y17610453D01*
X5033585Y17553120D01*
X4861585Y17553120D01*
X4748252Y18753120D02*
X4805585Y18695787D01*
X4748252Y18638453D01*
X4690918Y18695787D01*
X4748252Y18753120D01*
X4748252Y18638453D01*
X5205585Y18753120D02*
X5261585Y18695787D01*
X5205585Y18638453D01*
X5148252Y18695787D01*
X5205585Y18753120D01*
X5205585Y18638453D01*
X5701585Y17553120D02*
X5701585Y18353120D01*
X5701585Y18125120D02*
X5758918Y18238453D01*
X5816252Y18295787D01*
X5929585Y18353120D01*
X6044252Y18353120D01*
X6656252Y17553120D02*
X6541585Y17610453D01*
X6484252Y17725120D01*
X6484252Y18753120D01*
X7153585Y17553120D02*
X7153585Y18353120D01*
X7153585Y18753120D02*
X7096252Y18695787D01*
X7153585Y18638453D01*
X7210919Y18695787D01*
X7153585Y18753120D01*
X7153585Y18638453D01*
X8570918Y17553120D02*
X8570918Y18753120D01*
X9028251Y18753120D01*
X9142918Y18695787D01*
X9198918Y18638453D01*
X9256251Y18525120D01*
X9256251Y18353120D01*
X9198918Y18238453D01*
X9142918Y18181120D01*
X9028251Y18125120D01*
X8570918Y18125120D01*
X10438918Y17667787D02*
X10381584Y17610453D01*
X10210918Y17553120D01*
X10096251Y17553120D01*
X9924251Y17610453D01*
X9810918Y17725120D01*
X9753584Y17838453D01*
X9696251Y18067787D01*
X9696251Y18238453D01*
X9753584Y18467787D01*
X9810918Y18581120D01*
X9924251Y18695787D01*
X10096251Y18753120D01*
X10210918Y18753120D01*
X10381584Y18695787D01*
X10438918Y18638453D01*
X11278918Y18181120D02*
X11450918Y18125120D01*
X11506918Y18067787D01*
X11564251Y17953120D01*
X11564251Y17781120D01*
X11506918Y17667787D01*
X11450918Y17610453D01*
X11336251Y17553120D01*
X10878918Y17553120D01*
X10878918Y18753120D01*
X11278918Y18753120D01*
X11393585Y18695787D01*
X11450918Y18638453D01*
X11506918Y18525120D01*
X11506918Y18410453D01*
X11450918Y18295787D01*
X11393585Y18238453D01*
X11278918Y18181120D01*
X10878918Y18181120D01*
X3050918Y16019788D02*
X3336251Y15219788D01*
X3622918Y16019788D01*
X4120251Y16305121D02*
X4177585Y16362455D01*
X4290918Y16419788D01*
X4577585Y16419788D01*
X4690918Y16362455D01*
X4748251Y16305121D01*
X4805585Y16191788D01*
X4805585Y16077121D01*
X4748251Y15905121D01*
X4062918Y15219788D01*
X4805585Y15219788D01*
X6222917Y16305121D02*
X6280251Y16362455D01*
X6393584Y16419788D01*
X6680251Y16419788D01*
X6793584Y16362455D01*
X6850917Y16305121D01*
X6908251Y16191788D01*
X6908251Y16077121D01*
X6850917Y15905121D01*
X6165584Y15219788D01*
X6908251Y15219788D01*
X7633584Y16419788D02*
X7748251Y16419788D01*
X7862918Y16362455D01*
X7920251Y16305121D01*
X7976251Y16191788D01*
X8033584Y15962455D01*
X8033584Y15677121D01*
X7976251Y15447788D01*
X7920251Y15334455D01*
X7862918Y15277121D01*
X7748251Y15219788D01*
X7633584Y15219788D01*
X7520251Y15277121D01*
X7462918Y15334455D01*
X7405584Y15447788D01*
X7348251Y15677121D01*
X7348251Y15962455D01*
X7405584Y16191788D01*
X7462918Y16305121D01*
X7520251Y16362455D01*
X7633584Y16419788D01*
X9158917Y15219788D02*
X8473584Y15219788D01*
X8816251Y15219788D02*
X8816251Y16419788D01*
X8701584Y16247788D01*
X8588251Y16134455D01*
X8473584Y16077121D01*
X9713584Y15219788D02*
X9941584Y15219788D01*
X10056250Y15277121D01*
X10113584Y15334455D01*
X10226917Y15505121D01*
X10284250Y15734455D01*
X10284250Y16191788D01*
X10226917Y16305121D01*
X10170917Y16362455D01*
X10056250Y16419788D01*
X9826917Y16419788D01*
X9713584Y16362455D01*
X9656250Y16305121D01*
X9598917Y16191788D01*
X9598917Y15905121D01*
X9656250Y15791788D01*
X9713584Y15734455D01*
X9826917Y15677121D01*
X10056250Y15677121D01*
X10170917Y15734455D01*
X10226917Y15791788D01*
X10284250Y15905121D01*
G04 --- BOARD END --- *
%TF.MD5,d82dedcf12991dabf2899c6c4de73912*%
M02*
