M48
;DRILL FILE
;Generated by LibrePCB 0.1.3
;Creation Date: 2019-12-13T00:59:46
FMAT,2
METRIC,TZ
T1C0.3
T2C0.4
T3C1.0
T4C1.2
T5C1.6
T6C1.83
%
G90
G05
M71
T1
X35.0Y18.9
X48.5775Y26.82875
X33.9Y15.8
X35.0Y21.5
X37.0Y13.1
X30.1625Y24.13
X33.258125Y74.691875
X47.625Y26.82875
X43.815Y26.82875
X36.0Y13.1
X36.0Y18.9
X38.0Y21.5
X46.51375Y60.96
X25.4Y60.325
X34.39625Y20.07
X34.1Y18.9
X38.1Y9.8425
X46.51375Y72.0725
X49.05375Y75.2475
X38.0Y15.7
X40.322996Y4.445066
X33.3375Y23.495
X37.1475Y26.3525
X35.0Y13.1
X41.91Y26.82875
X37.1475Y23.495
X46.6725Y26.82875
X36.0Y21.5
X50.165Y64.61125
X50.165Y66.51625
X50.165Y65.56375
X34.29Y33.02
X34.29Y36.83
X34.29Y34.29
X34.29Y35.56
X34.29Y38.1
X45.323125Y63.896875
X38.89375Y7.3025
X35.0Y15.7
X38.0Y18.9
X27.6225Y80.80375
X30.7975Y18.0975
X36.83Y76.5175
X31.90875Y21.43125
X30.7975Y24.765
X37.0Y21.5
X40.3225Y60.0075
X29.05125Y22.38375
X41.91Y32.0675
X39.37Y32.0675
X40.64Y32.0675
X43.18Y32.0675
X32.7025Y16.1925
X36.98875Y59.69
X37.663912Y77.470976
X43.249455Y65.206561
X42.2275Y82.55
X26.590625Y41.989375
X47.14875Y65.420875
X5.675384Y36.893984
X36.195Y26.19375
X33.3375Y19.3675
X44.846875Y39.37
X44.846875Y34.925
X26.51125Y38.1
X26.51125Y36.83
X44.053125Y71.993125
X37.0Y15.7
X34.29Y26.19375
X49.53Y26.82875
X32.0675Y16.8275
X39.21125Y85.09
X39.21125Y84.1375
X41.582576Y64.50211
X40.16375Y72.54875
X37.0Y18.9
X42.8625Y26.82875
X38.0Y13.1
X36.195Y23.495
X44.529372Y77.62875
X34.13125Y66.19875
X36.5125Y64.849375
X29.05125Y20.47875
X25.7175Y59.3725
X45.640625Y60.721875
X31.90875Y3.81
X31.4325Y17.4625
X24.13Y73.66
X25.4Y73.66
X48.10125Y78.58125
X48.895Y70.485
X38.1Y11.27125
X34.39625Y14.53
X39.05298Y3.17505
X36.0Y15.7
X30.1625Y18.7325
X29.05125Y21.43125
X44.7675Y26.82875
X34.29Y23.495
X29.5275Y19.3675
X38.1Y0.9525
X31.75Y25.7175
X35.2425Y26.19375
X32.7025Y22.86
X32.7025Y20.0025
X32.0675Y22.225
X32.0675Y20.6375
X42.426472Y68.223672
X25.4Y42.148125
X37.7825Y26.9875
X39.0525Y0.9525
X39.6875Y3.81
X48.180625Y74.295
X41.751776Y65.326448
X44.846875Y61.2775
X26.035Y58.42
X29.5275Y23.495
X43.259375Y71.993125
X42.38625Y81.12125
X45.72Y26.82875
X35.2425Y23.495
T2
X47.625Y32.385
X46.6725Y33.655
T3
X15.24Y85.09
X15.24Y87.63
X15.24Y82.55
X25.4Y76.835
X20.32Y76.835
X25.4Y79.375
X22.86Y79.375
X22.86Y76.835
X20.32Y79.375
X6.985Y25.4
X6.985Y27.94
X6.985Y22.86
X6.985Y48.26
X6.985Y40.64
X6.985Y45.72
X6.985Y43.18
X38.4175Y56.98
X43.4975Y56.98
X48.5775Y56.98
X46.0375Y56.98
X33.3375Y56.98
X35.8775Y56.98
X40.9575Y56.98
T4
X9.785Y35.2385
X4.185Y35.2385
T5
X6.985Y33.0885
T6
X19.685Y63.43
X24.765Y63.43
X22.225Y71.05
X19.685Y12.43
X22.225Y4.81
X24.765Y12.43
T0
M30
